<mxfile host="app.diagrams.net" modified="2023-11-22T13:24:50.608Z" agent="Mozilla/5.0 (Windows NT 10.0; Win64; x64) AppleWebKit/537.36 (KHTML, like Gecko) Chrome/119.0.0.0 Safari/537.36" etag="fzKnENNDxxQpW-7lOHbe" version="22.1.3" type="device">
  <diagram id="R2lEEEUBdFMjLlhIrx00" name="Page-1">
    <mxGraphModel dx="2759" dy="2064" grid="1" gridSize="10" guides="1" tooltips="1" connect="1" arrows="1" fold="1" page="1" pageScale="1" pageWidth="850" pageHeight="1100" math="0" shadow="0" extFonts="Permanent Marker^https://fonts.googleapis.com/css?family=Permanent+Marker">
      <root>
        <mxCell id="0" />
        <mxCell id="1" parent="0" />
        <mxCell id="y7zlb-hDQrZ5OiGACak9-3" value="&lt;font style=&quot;font-size: 21px;&quot;&gt;Users&lt;/font&gt;" style="whiteSpace=wrap;html=1;align=center;" vertex="1" parent="1">
          <mxGeometry x="320" y="-120" width="160" height="80" as="geometry" />
        </mxCell>
        <mxCell id="y7zlb-hDQrZ5OiGACak9-4" value="id" style="ellipse;whiteSpace=wrap;html=1;align=center;fontStyle=4;" vertex="1" parent="1">
          <mxGeometry x="160" y="25" width="100" height="30" as="geometry" />
        </mxCell>
        <mxCell id="y7zlb-hDQrZ5OiGACak9-5" value="" style="endArrow=none;html=1;rounded=0;exitX=0.5;exitY=0;exitDx=0;exitDy=0;entryX=0;entryY=1;entryDx=0;entryDy=0;" edge="1" parent="1" source="y7zlb-hDQrZ5OiGACak9-4" target="y7zlb-hDQrZ5OiGACak9-3">
          <mxGeometry relative="1" as="geometry">
            <mxPoint x="340" y="-260" as="sourcePoint" />
            <mxPoint x="500" y="-260" as="targetPoint" />
          </mxGeometry>
        </mxCell>
        <mxCell id="y7zlb-hDQrZ5OiGACak9-6" value="username" style="ellipse;whiteSpace=wrap;html=1;align=center;" vertex="1" parent="1">
          <mxGeometry x="240" y="80" width="90" height="40" as="geometry" />
        </mxCell>
        <mxCell id="y7zlb-hDQrZ5OiGACak9-7" value="" style="endArrow=none;html=1;rounded=0;exitX=0.25;exitY=1;exitDx=0;exitDy=0;entryX=0.5;entryY=0;entryDx=0;entryDy=0;" edge="1" parent="1" source="y7zlb-hDQrZ5OiGACak9-3" target="y7zlb-hDQrZ5OiGACak9-6">
          <mxGeometry relative="1" as="geometry">
            <mxPoint x="340" y="-260" as="sourcePoint" />
            <mxPoint x="500" y="-260" as="targetPoint" />
          </mxGeometry>
        </mxCell>
        <mxCell id="y7zlb-hDQrZ5OiGACak9-8" value="email" style="ellipse;whiteSpace=wrap;html=1;align=center;" vertex="1" parent="1">
          <mxGeometry x="425" y="100" width="100" height="40" as="geometry" />
        </mxCell>
        <mxCell id="y7zlb-hDQrZ5OiGACak9-9" value="password" style="ellipse;whiteSpace=wrap;html=1;align=center;" vertex="1" parent="1">
          <mxGeometry x="340" y="-10" width="100" height="45" as="geometry" />
        </mxCell>
        <mxCell id="y7zlb-hDQrZ5OiGACak9-10" value="" style="endArrow=none;html=1;rounded=0;exitX=0.5;exitY=1;exitDx=0;exitDy=0;entryX=0.5;entryY=0;entryDx=0;entryDy=0;" edge="1" parent="1" source="y7zlb-hDQrZ5OiGACak9-3" target="y7zlb-hDQrZ5OiGACak9-9">
          <mxGeometry relative="1" as="geometry">
            <mxPoint x="340" y="-260" as="sourcePoint" />
            <mxPoint x="500" y="-260" as="targetPoint" />
          </mxGeometry>
        </mxCell>
        <mxCell id="y7zlb-hDQrZ5OiGACak9-11" value="" style="endArrow=none;html=1;rounded=0;exitX=0.75;exitY=1;exitDx=0;exitDy=0;entryX=0.5;entryY=0;entryDx=0;entryDy=0;" edge="1" parent="1" source="y7zlb-hDQrZ5OiGACak9-3" target="y7zlb-hDQrZ5OiGACak9-8">
          <mxGeometry relative="1" as="geometry">
            <mxPoint x="340" y="-260" as="sourcePoint" />
            <mxPoint x="500" y="-260" as="targetPoint" />
          </mxGeometry>
        </mxCell>
        <mxCell id="y7zlb-hDQrZ5OiGACak9-12" value="&lt;font style=&quot;font-size: 21px;&quot;&gt;Tasks&lt;/font&gt;" style="whiteSpace=wrap;html=1;align=center;" vertex="1" parent="1">
          <mxGeometry x="570" y="-390" width="160" height="80" as="geometry" />
        </mxCell>
        <mxCell id="y7zlb-hDQrZ5OiGACak9-14" value="" style="endArrow=none;html=1;rounded=0;exitX=0;exitY=1;exitDx=0;exitDy=0;entryX=0.5;entryY=0;entryDx=0;entryDy=0;" edge="1" parent="1" source="y7zlb-hDQrZ5OiGACak9-12" target="y7zlb-hDQrZ5OiGACak9-13">
          <mxGeometry relative="1" as="geometry">
            <mxPoint x="340" y="-270" as="sourcePoint" />
            <mxPoint x="500" y="-270" as="targetPoint" />
          </mxGeometry>
        </mxCell>
        <mxCell id="y7zlb-hDQrZ5OiGACak9-15" value="task_name" style="ellipse;whiteSpace=wrap;html=1;align=center;" vertex="1" parent="1">
          <mxGeometry x="550" y="-220" width="100" height="40" as="geometry" />
        </mxCell>
        <mxCell id="y7zlb-hDQrZ5OiGACak9-16" value="" style="endArrow=none;html=1;rounded=0;entryX=0.25;entryY=1;entryDx=0;entryDy=0;exitX=0.5;exitY=0;exitDx=0;exitDy=0;" edge="1" parent="1" source="y7zlb-hDQrZ5OiGACak9-15" target="y7zlb-hDQrZ5OiGACak9-12">
          <mxGeometry relative="1" as="geometry">
            <mxPoint x="340" y="-270" as="sourcePoint" />
            <mxPoint x="500" y="-270" as="targetPoint" />
          </mxGeometry>
        </mxCell>
        <mxCell id="y7zlb-hDQrZ5OiGACak9-17" value="description" style="ellipse;whiteSpace=wrap;html=1;align=center;" vertex="1" parent="1">
          <mxGeometry x="610" y="-170" width="100" height="40" as="geometry" />
        </mxCell>
        <mxCell id="y7zlb-hDQrZ5OiGACak9-18" value="" style="endArrow=none;html=1;rounded=0;entryX=0.5;entryY=1;entryDx=0;entryDy=0;exitX=0.5;exitY=0;exitDx=0;exitDy=0;" edge="1" parent="1" source="y7zlb-hDQrZ5OiGACak9-17" target="y7zlb-hDQrZ5OiGACak9-12">
          <mxGeometry relative="1" as="geometry">
            <mxPoint x="340" y="-270" as="sourcePoint" />
            <mxPoint x="500" y="-270" as="targetPoint" />
          </mxGeometry>
        </mxCell>
        <mxCell id="y7zlb-hDQrZ5OiGACak9-21" value="" style="endArrow=none;html=1;rounded=0;entryX=0.75;entryY=1;entryDx=0;entryDy=0;exitX=0.5;exitY=0;exitDx=0;exitDy=0;" edge="1" parent="1" source="y7zlb-hDQrZ5OiGACak9-39" target="y7zlb-hDQrZ5OiGACak9-12">
          <mxGeometry relative="1" as="geometry">
            <mxPoint x="600" y="-280" as="sourcePoint" />
            <mxPoint x="500" y="-270" as="targetPoint" />
          </mxGeometry>
        </mxCell>
        <mxCell id="y7zlb-hDQrZ5OiGACak9-25" value="status" style="ellipse;whiteSpace=wrap;html=1;align=center;" vertex="1" parent="1">
          <mxGeometry x="730" y="-270" width="100" height="40" as="geometry" />
        </mxCell>
        <mxCell id="y7zlb-hDQrZ5OiGACak9-26" value="" style="endArrow=none;html=1;rounded=0;exitX=1;exitY=1;exitDx=0;exitDy=0;entryX=0.5;entryY=0;entryDx=0;entryDy=0;" edge="1" parent="1" source="y7zlb-hDQrZ5OiGACak9-12" target="y7zlb-hDQrZ5OiGACak9-25">
          <mxGeometry relative="1" as="geometry">
            <mxPoint x="340" y="-270" as="sourcePoint" />
            <mxPoint x="500" y="-270" as="targetPoint" />
          </mxGeometry>
        </mxCell>
        <mxCell id="y7zlb-hDQrZ5OiGACak9-27" value="due_date" style="ellipse;whiteSpace=wrap;html=1;align=center;" vertex="1" parent="1">
          <mxGeometry x="830" y="-450" width="100" height="40" as="geometry" />
        </mxCell>
        <mxCell id="y7zlb-hDQrZ5OiGACak9-28" value="end_date" style="ellipse;whiteSpace=wrap;html=1;align=center;" vertex="1" parent="1">
          <mxGeometry x="810" y="-390" width="100" height="40" as="geometry" />
        </mxCell>
        <mxCell id="y7zlb-hDQrZ5OiGACak9-29" value="start_date" style="ellipse;whiteSpace=wrap;html=1;align=center;" vertex="1" parent="1">
          <mxGeometry x="790" y="-330" width="100" height="40" as="geometry" />
        </mxCell>
        <mxCell id="y7zlb-hDQrZ5OiGACak9-30" value="" style="endArrow=none;html=1;rounded=0;exitX=1;exitY=0.75;exitDx=0;exitDy=0;entryX=0;entryY=0.5;entryDx=0;entryDy=0;" edge="1" parent="1" source="y7zlb-hDQrZ5OiGACak9-12" target="y7zlb-hDQrZ5OiGACak9-29">
          <mxGeometry relative="1" as="geometry">
            <mxPoint x="340" y="-270" as="sourcePoint" />
            <mxPoint x="500" y="-270" as="targetPoint" />
          </mxGeometry>
        </mxCell>
        <mxCell id="y7zlb-hDQrZ5OiGACak9-31" value="" style="endArrow=none;html=1;rounded=0;exitX=1;exitY=0.25;exitDx=0;exitDy=0;entryX=0;entryY=0.5;entryDx=0;entryDy=0;" edge="1" parent="1" source="y7zlb-hDQrZ5OiGACak9-12" target="y7zlb-hDQrZ5OiGACak9-28">
          <mxGeometry relative="1" as="geometry">
            <mxPoint x="340" y="-270" as="sourcePoint" />
            <mxPoint x="500" y="-270" as="targetPoint" />
          </mxGeometry>
        </mxCell>
        <mxCell id="y7zlb-hDQrZ5OiGACak9-32" value="" style="endArrow=none;html=1;rounded=0;exitX=1;exitY=0;exitDx=0;exitDy=0;entryX=0;entryY=0.5;entryDx=0;entryDy=0;" edge="1" parent="1" source="y7zlb-hDQrZ5OiGACak9-12" target="y7zlb-hDQrZ5OiGACak9-27">
          <mxGeometry relative="1" as="geometry">
            <mxPoint x="340" y="-270" as="sourcePoint" />
            <mxPoint x="500" y="-270" as="targetPoint" />
          </mxGeometry>
        </mxCell>
        <mxCell id="y7zlb-hDQrZ5OiGACak9-37" value="" style="endArrow=none;html=1;rounded=0;exitX=0.75;exitY=0;exitDx=0;exitDy=0;entryX=0.5;entryY=1;entryDx=0;entryDy=0;" edge="1" parent="1" source="y7zlb-hDQrZ5OiGACak9-12" target="y7zlb-hDQrZ5OiGACak9-42">
          <mxGeometry relative="1" as="geometry">
            <mxPoint x="340" y="-270" as="sourcePoint" />
            <mxPoint x="590" y="-500" as="targetPoint" />
          </mxGeometry>
        </mxCell>
        <mxCell id="y7zlb-hDQrZ5OiGACak9-38" value="&lt;font style=&quot;font-size: 21px;&quot;&gt;Categories&lt;/font&gt;" style="whiteSpace=wrap;html=1;align=center;" vertex="1" parent="1">
          <mxGeometry x="330" y="-640" width="160" height="80" as="geometry" />
        </mxCell>
        <mxCell id="y7zlb-hDQrZ5OiGACak9-39" value="&lt;u&gt;category_id&lt;/u&gt;" style="ellipse;whiteSpace=wrap;html=1;align=center;" vertex="1" parent="1">
          <mxGeometry x="680" y="-220" width="100" height="40" as="geometry" />
        </mxCell>
        <mxCell id="y7zlb-hDQrZ5OiGACak9-40" value="FK" style="ellipse;shape=cloud;whiteSpace=wrap;html=1;align=center;" vertex="1" parent="1">
          <mxGeometry x="740" y="-190" width="100" height="60" as="geometry" />
        </mxCell>
        <mxCell id="y7zlb-hDQrZ5OiGACak9-41" value="" style="endArrow=none;html=1;rounded=0;exitX=1;exitY=1;exitDx=0;exitDy=0;entryX=0.25;entryY=0.25;entryDx=0;entryDy=0;entryPerimeter=0;" edge="1" parent="1" source="y7zlb-hDQrZ5OiGACak9-39" target="y7zlb-hDQrZ5OiGACak9-40">
          <mxGeometry relative="1" as="geometry">
            <mxPoint x="340" y="-370" as="sourcePoint" />
            <mxPoint x="500" y="-370" as="targetPoint" />
          </mxGeometry>
        </mxCell>
        <mxCell id="y7zlb-hDQrZ5OiGACak9-42" value="&lt;u&gt;user_id&lt;/u&gt;" style="ellipse;whiteSpace=wrap;html=1;align=center;" vertex="1" parent="1">
          <mxGeometry x="680" y="-490" width="100" height="40" as="geometry" />
        </mxCell>
        <mxCell id="y7zlb-hDQrZ5OiGACak9-44" value="FK" style="ellipse;shape=cloud;whiteSpace=wrap;html=1;align=center;" vertex="1" parent="1">
          <mxGeometry x="750" y="-570" width="100" height="60" as="geometry" />
        </mxCell>
        <mxCell id="y7zlb-hDQrZ5OiGACak9-45" value="" style="endArrow=none;html=1;rounded=0;exitX=0.5;exitY=0;exitDx=0;exitDy=0;entryX=0.31;entryY=0.8;entryDx=0;entryDy=0;entryPerimeter=0;" edge="1" parent="1" source="y7zlb-hDQrZ5OiGACak9-42" target="y7zlb-hDQrZ5OiGACak9-44">
          <mxGeometry relative="1" as="geometry">
            <mxPoint x="340" y="-370" as="sourcePoint" />
            <mxPoint x="500" y="-370" as="targetPoint" />
          </mxGeometry>
        </mxCell>
        <mxCell id="y7zlb-hDQrZ5OiGACak9-46" value="id" style="ellipse;whiteSpace=wrap;html=1;align=center;fontStyle=4;" vertex="1" parent="1">
          <mxGeometry x="260" y="-720" width="100" height="40" as="geometry" />
        </mxCell>
        <mxCell id="y7zlb-hDQrZ5OiGACak9-47" value="category_name" style="ellipse;whiteSpace=wrap;html=1;align=center;" vertex="1" parent="1">
          <mxGeometry x="450" y="-710" width="100" height="40" as="geometry" />
        </mxCell>
        <mxCell id="y7zlb-hDQrZ5OiGACak9-48" value="" style="endArrow=none;html=1;rounded=0;exitX=0.5;exitY=1;exitDx=0;exitDy=0;entryX=0.25;entryY=0;entryDx=0;entryDy=0;" edge="1" parent="1" source="y7zlb-hDQrZ5OiGACak9-46" target="y7zlb-hDQrZ5OiGACak9-38">
          <mxGeometry relative="1" as="geometry">
            <mxPoint x="340" y="-570" as="sourcePoint" />
            <mxPoint x="500" y="-570" as="targetPoint" />
          </mxGeometry>
        </mxCell>
        <mxCell id="y7zlb-hDQrZ5OiGACak9-49" value="" style="endArrow=none;html=1;rounded=0;exitX=0.5;exitY=1;exitDx=0;exitDy=0;entryX=0.75;entryY=0;entryDx=0;entryDy=0;" edge="1" parent="1" source="y7zlb-hDQrZ5OiGACak9-47" target="y7zlb-hDQrZ5OiGACak9-38">
          <mxGeometry relative="1" as="geometry">
            <mxPoint x="340" y="-570" as="sourcePoint" />
            <mxPoint x="500" y="-570" as="targetPoint" />
          </mxGeometry>
        </mxCell>
        <mxCell id="y7zlb-hDQrZ5OiGACak9-50" value="&lt;font style=&quot;font-size: 21px;&quot;&gt;Chat&lt;/font&gt;" style="whiteSpace=wrap;html=1;align=center;" vertex="1" parent="1">
          <mxGeometry x="70" y="-390" width="160" height="80" as="geometry" />
        </mxCell>
        <mxCell id="y7zlb-hDQrZ5OiGACak9-51" value="active" style="ellipse;whiteSpace=wrap;html=1;align=center;" vertex="1" parent="1">
          <mxGeometry x="510" y="40" width="100" height="40" as="geometry" />
        </mxCell>
        <mxCell id="y7zlb-hDQrZ5OiGACak9-52" value="" style="endArrow=none;html=1;rounded=0;exitX=1;exitY=1;exitDx=0;exitDy=0;entryX=0.5;entryY=0;entryDx=0;entryDy=0;" edge="1" parent="1" source="y7zlb-hDQrZ5OiGACak9-3" target="y7zlb-hDQrZ5OiGACak9-51">
          <mxGeometry relative="1" as="geometry">
            <mxPoint x="340" y="-280" as="sourcePoint" />
            <mxPoint x="500" y="-280" as="targetPoint" />
          </mxGeometry>
        </mxCell>
        <mxCell id="y7zlb-hDQrZ5OiGACak9-13" value="id" style="ellipse;whiteSpace=wrap;html=1;align=center;fontStyle=4;" vertex="1" parent="1">
          <mxGeometry x="480" y="-260" width="100" height="40" as="geometry" />
        </mxCell>
        <mxCell id="y7zlb-hDQrZ5OiGACak9-54" value="id" style="ellipse;whiteSpace=wrap;html=1;align=center;fontStyle=4;" vertex="1" parent="1">
          <mxGeometry x="-20" y="-470" width="100" height="40" as="geometry" />
        </mxCell>
        <mxCell id="y7zlb-hDQrZ5OiGACak9-55" value="" style="endArrow=none;html=1;rounded=0;exitX=0.5;exitY=1;exitDx=0;exitDy=0;entryX=0;entryY=0;entryDx=0;entryDy=0;" edge="1" parent="1" source="y7zlb-hDQrZ5OiGACak9-54" target="y7zlb-hDQrZ5OiGACak9-50">
          <mxGeometry relative="1" as="geometry">
            <mxPoint x="340" y="-350" as="sourcePoint" />
            <mxPoint x="500" y="-350" as="targetPoint" />
          </mxGeometry>
        </mxCell>
        <mxCell id="y7zlb-hDQrZ5OiGACak9-56" value="&lt;u&gt;user_id&lt;/u&gt;" style="ellipse;whiteSpace=wrap;html=1;align=center;" vertex="1" parent="1">
          <mxGeometry x="110" y="-470" width="100" height="40" as="geometry" />
        </mxCell>
        <mxCell id="y7zlb-hDQrZ5OiGACak9-57" value="" style="endArrow=none;html=1;rounded=0;exitX=0.25;exitY=0;exitDx=0;exitDy=0;entryX=0.5;entryY=1;entryDx=0;entryDy=0;" edge="1" parent="1" source="y7zlb-hDQrZ5OiGACak9-50" target="y7zlb-hDQrZ5OiGACak9-56">
          <mxGeometry relative="1" as="geometry">
            <mxPoint x="340" y="-350" as="sourcePoint" />
            <mxPoint x="500" y="-350" as="targetPoint" />
          </mxGeometry>
        </mxCell>
        <mxCell id="y7zlb-hDQrZ5OiGACak9-58" value="FK" style="ellipse;shape=cloud;whiteSpace=wrap;html=1;align=center;" vertex="1" parent="1">
          <mxGeometry x="110" y="-550" width="100" height="60" as="geometry" />
        </mxCell>
        <mxCell id="y7zlb-hDQrZ5OiGACak9-59" value="" style="endArrow=none;html=1;rounded=0;exitX=0.5;exitY=0;exitDx=0;exitDy=0;entryX=0.55;entryY=0.95;entryDx=0;entryDy=0;entryPerimeter=0;" edge="1" parent="1" source="y7zlb-hDQrZ5OiGACak9-56" target="y7zlb-hDQrZ5OiGACak9-58">
          <mxGeometry relative="1" as="geometry">
            <mxPoint x="340" y="-350" as="sourcePoint" />
            <mxPoint x="500" y="-350" as="targetPoint" />
          </mxGeometry>
        </mxCell>
        <mxCell id="y7zlb-hDQrZ5OiGACak9-60" value="date" style="ellipse;whiteSpace=wrap;html=1;align=center;" vertex="1" parent="1">
          <mxGeometry x="290" y="-380" width="100" height="40" as="geometry" />
        </mxCell>
        <mxCell id="y7zlb-hDQrZ5OiGACak9-61" value="text" style="ellipse;whiteSpace=wrap;html=1;align=center;" vertex="1" parent="1">
          <mxGeometry x="280" y="-460" width="100" height="40" as="geometry" />
        </mxCell>
        <mxCell id="y7zlb-hDQrZ5OiGACak9-62" value="" style="endArrow=none;html=1;rounded=0;exitX=0.75;exitY=0;exitDx=0;exitDy=0;entryX=0;entryY=0.5;entryDx=0;entryDy=0;" edge="1" parent="1" source="y7zlb-hDQrZ5OiGACak9-50" target="y7zlb-hDQrZ5OiGACak9-61">
          <mxGeometry relative="1" as="geometry">
            <mxPoint x="340" y="-350" as="sourcePoint" />
            <mxPoint x="500" y="-350" as="targetPoint" />
          </mxGeometry>
        </mxCell>
        <mxCell id="y7zlb-hDQrZ5OiGACak9-63" value="" style="endArrow=none;html=1;rounded=0;exitX=1.013;exitY=0.35;exitDx=0;exitDy=0;exitPerimeter=0;entryX=0;entryY=0.5;entryDx=0;entryDy=0;" edge="1" parent="1" source="y7zlb-hDQrZ5OiGACak9-50" target="y7zlb-hDQrZ5OiGACak9-60">
          <mxGeometry relative="1" as="geometry">
            <mxPoint x="340" y="-350" as="sourcePoint" />
            <mxPoint x="500" y="-350" as="targetPoint" />
          </mxGeometry>
        </mxCell>
        <mxCell id="y7zlb-hDQrZ5OiGACak9-64" value="Have" style="shape=rhombus;perimeter=rhombusPerimeter;whiteSpace=wrap;html=1;align=center;" vertex="1" parent="1">
          <mxGeometry x="400" y="-330" width="120" height="60" as="geometry" />
        </mxCell>
        <mxCell id="y7zlb-hDQrZ5OiGACak9-65" value="" style="endArrow=none;html=1;rounded=0;exitX=0.5;exitY=0;exitDx=0;exitDy=0;entryX=0;entryY=1;entryDx=0;entryDy=0;" edge="1" parent="1" source="y7zlb-hDQrZ5OiGACak9-3" target="y7zlb-hDQrZ5OiGACak9-64">
          <mxGeometry relative="1" as="geometry">
            <mxPoint x="340" y="-250" as="sourcePoint" />
            <mxPoint x="500" y="-250" as="targetPoint" />
          </mxGeometry>
        </mxCell>
        <mxCell id="y7zlb-hDQrZ5OiGACak9-66" value="" style="endArrow=none;html=1;rounded=0;exitX=1;exitY=0;exitDx=0;exitDy=0;entryX=0;entryY=0.5;entryDx=0;entryDy=0;" edge="1" parent="1" source="y7zlb-hDQrZ5OiGACak9-64" target="y7zlb-hDQrZ5OiGACak9-12">
          <mxGeometry relative="1" as="geometry">
            <mxPoint x="340" y="-250" as="sourcePoint" />
            <mxPoint x="500" y="-250" as="targetPoint" />
          </mxGeometry>
        </mxCell>
        <mxCell id="y7zlb-hDQrZ5OiGACak9-67" value="Write" style="shape=rhombus;perimeter=rhombusPerimeter;whiteSpace=wrap;html=1;align=center;" vertex="1" parent="1">
          <mxGeometry x="110" y="-250" width="120" height="60" as="geometry" />
        </mxCell>
        <mxCell id="y7zlb-hDQrZ5OiGACak9-68" value="" style="endArrow=none;html=1;rounded=0;exitX=0.19;exitY=-0.015;exitDx=0;exitDy=0;exitPerimeter=0;entryX=1;entryY=1;entryDx=0;entryDy=0;" edge="1" parent="1" source="y7zlb-hDQrZ5OiGACak9-3" target="y7zlb-hDQrZ5OiGACak9-67">
          <mxGeometry relative="1" as="geometry">
            <mxPoint x="340" y="-250" as="sourcePoint" />
            <mxPoint x="500" y="-250" as="targetPoint" />
          </mxGeometry>
        </mxCell>
        <mxCell id="y7zlb-hDQrZ5OiGACak9-69" value="" style="endArrow=none;html=1;rounded=0;exitX=0.5;exitY=0;exitDx=0;exitDy=0;entryX=0.5;entryY=1;entryDx=0;entryDy=0;" edge="1" parent="1" source="y7zlb-hDQrZ5OiGACak9-67" target="y7zlb-hDQrZ5OiGACak9-50">
          <mxGeometry relative="1" as="geometry">
            <mxPoint x="340" y="-250" as="sourcePoint" />
            <mxPoint x="500" y="-250" as="targetPoint" />
          </mxGeometry>
        </mxCell>
        <mxCell id="y7zlb-hDQrZ5OiGACak9-70" value="Keep" style="shape=rhombus;perimeter=rhombusPerimeter;whiteSpace=wrap;html=1;align=center;" vertex="1" parent="1">
          <mxGeometry x="490" y="-520" width="120" height="60" as="geometry" />
        </mxCell>
        <mxCell id="y7zlb-hDQrZ5OiGACak9-71" value="" style="endArrow=none;html=1;rounded=0;exitX=0.75;exitY=1;exitDx=0;exitDy=0;entryX=0;entryY=0;entryDx=0;entryDy=0;" edge="1" parent="1" source="y7zlb-hDQrZ5OiGACak9-38" target="y7zlb-hDQrZ5OiGACak9-70">
          <mxGeometry relative="1" as="geometry">
            <mxPoint x="340" y="-450" as="sourcePoint" />
            <mxPoint x="500" y="-450" as="targetPoint" />
          </mxGeometry>
        </mxCell>
        <mxCell id="y7zlb-hDQrZ5OiGACak9-72" value="" style="endArrow=none;html=1;rounded=0;entryX=1;entryY=1;entryDx=0;entryDy=0;exitX=0.5;exitY=0;exitDx=0;exitDy=0;" edge="1" parent="1" source="y7zlb-hDQrZ5OiGACak9-12" target="y7zlb-hDQrZ5OiGACak9-70">
          <mxGeometry relative="1" as="geometry">
            <mxPoint x="340" y="-450" as="sourcePoint" />
            <mxPoint x="500" y="-450" as="targetPoint" />
          </mxGeometry>
        </mxCell>
        <mxCell id="y7zlb-hDQrZ5OiGACak9-73" value="1,1" style="text;html=1;strokeColor=none;fillColor=none;align=center;verticalAlign=middle;whiteSpace=wrap;rounded=0;" vertex="1" parent="1">
          <mxGeometry x="90" y="-310" width="60" height="30" as="geometry" />
        </mxCell>
        <mxCell id="y7zlb-hDQrZ5OiGACak9-74" value="1,n" style="text;html=1;strokeColor=none;fillColor=none;align=center;verticalAlign=middle;whiteSpace=wrap;rounded=0;" vertex="1" parent="1">
          <mxGeometry x="260" y="-130" width="60" height="30" as="geometry" />
        </mxCell>
        <mxCell id="y7zlb-hDQrZ5OiGACak9-75" value="1:N" style="text;html=1;strokeColor=none;fillColor=none;align=center;verticalAlign=middle;whiteSpace=wrap;rounded=0;" vertex="1" parent="1">
          <mxGeometry x="180" y="-265" width="60" height="30" as="geometry" />
        </mxCell>
        <mxCell id="y7zlb-hDQrZ5OiGACak9-76" value="1,n" style="text;html=1;strokeColor=none;fillColor=none;align=center;verticalAlign=middle;whiteSpace=wrap;rounded=0;" vertex="1" parent="1">
          <mxGeometry x="410" y="-165" width="60" height="30" as="geometry" />
        </mxCell>
        <mxCell id="y7zlb-hDQrZ5OiGACak9-77" value="n,m" style="text;html=1;strokeColor=none;fillColor=none;align=center;verticalAlign=middle;whiteSpace=wrap;rounded=0;" vertex="1" parent="1">
          <mxGeometry x="510" y="-385" width="60" height="30" as="geometry" />
        </mxCell>
        <mxCell id="y7zlb-hDQrZ5OiGACak9-78" value="N:M" style="text;html=1;strokeColor=none;fillColor=none;align=center;verticalAlign=middle;whiteSpace=wrap;rounded=0;" vertex="1" parent="1">
          <mxGeometry x="390" y="-350" width="60" height="30" as="geometry" />
        </mxCell>
        <mxCell id="y7zlb-hDQrZ5OiGACak9-79" value="1,1" style="text;html=1;strokeColor=none;fillColor=none;align=center;verticalAlign=middle;whiteSpace=wrap;rounded=0;" vertex="1" parent="1">
          <mxGeometry x="490" y="-565" width="60" height="30" as="geometry" />
        </mxCell>
        <mxCell id="y7zlb-hDQrZ5OiGACak9-80" value="1,1" style="text;html=1;strokeColor=none;fillColor=none;align=center;verticalAlign=middle;whiteSpace=wrap;rounded=0;" vertex="1" parent="1">
          <mxGeometry x="640" y="-430" width="60" height="30" as="geometry" />
        </mxCell>
        <mxCell id="y7zlb-hDQrZ5OiGACak9-81" value="1:1" style="text;html=1;strokeColor=none;fillColor=none;align=center;verticalAlign=middle;whiteSpace=wrap;rounded=0;" vertex="1" parent="1">
          <mxGeometry x="570" y="-535" width="60" height="30" as="geometry" />
        </mxCell>
      </root>
    </mxGraphModel>
  </diagram>
</mxfile>
